<svg xmlns="http://www.w3.org/2000/svg" viewBox="0 0 221 36" width="221" height="36">
  <g transform="translate(0, 0)">
    <svg viewBox="0 0 24 24" width="36" height="36">
      <circle cx="12" cy="12" fill="#0055E9" r="12"/>
      <path d="M12 0c.518 0 1.028.033 1.528.096A6.188 6.188 0 0112.12 12.28l-.12.001c-2.99 0-5.242 2.179-5.554 5.11-.223 2.086.353 4.412 2.242 6.146C3.672 22.1 0 17.479 0 12 0 5.373 5.373 0 12 0z" fill="#A8DFF5"/>
      <path d="M5.286 5a2.438 2.438 0 01.682 3.38c-3.962 5.966-3.215 10.743 2.648 15.136C3.636 22.056 0 17.452 0 12c0-1.787.39-3.482 1.09-5.006.253-.435.525-.872.817-1.311A2.438 2.438 0 015.286 5z" fill="#0055E9"/>
      <path d="M12.98.04c.272.021.543.053.81.093.583.106 1.117.254 1.538.44 6.638 2.927 8.07 10.052 1.748 15.642a4.125 4.125 0 01-5.822-.358c-1.51-1.706-1.3-4.184.357-5.822.858-.848 3.108-1.223 4.045-2.441 1.257-1.634 2.122-6.009-2.523-7.506L12.98.039z" fill="#00BCFF"/>
      <path d="M13.528.096A6.187 6.187 0 0112 12.281a5.75 5.75 0 00-1.71.255c.147-.905.595-1.784 1.321-2.501.858-.848 3.108-1.223 4.045-2.441 1.27-1.651 2.14-6.104-2.676-7.554.184.014.367.033.548.056z" fill="#ECECEE"/>
    </svg>
  </g>

  <!-- Tencent- and WU in Tencent Sans W7, HY- in Noto Sans SC Bold (思源黑体) -->
  <g>
    <path d="M602 707H98L78 596H263L149 -50H284L398 596H582Z" transform="translate(50.00, 26.50) scale(0.022000, -0.022000)" fill="#111827"/>
    <path d="M372 524H304C157 524 99 496 75 358L36 134C32 110 29 85 29 64C29 -17 75 -50 205 -50H389L430 51H229C171 51 153 59 153 94C153 105 155 121 158 138L163 169H383C466 169 499 200 515 289L529 368C532 384 533 400 533 412C533 496 477 524 372 524ZM405 368 394 303C390 277 379 266 351 266H181L197 358C208 418 230 424 276 424H347C393 424 408 418 408 394C408 387 407 380 405 368Z" transform="translate(62.01, 26.50) scale(0.022000, -0.022000)" fill="#111827"/>
    <path d="M395 517H120L21 -50H145L226 414H372C419 414 434 407 434 372C434 357 431 332 424 293L363 -50H487L547 293C557 351 563 388 563 415C563 487 523 517 395 517Z" transform="translate(74.20, 26.50) scale(0.022000, -0.022000)" fill="#111827"/>
    <path d="M212 -50H377L420 51H245C179 51 157 59 157 102C157 120 161 145 169 188L193 321C207 396 222 416 295 416H445L487 517H302C135 517 96 480 68 319L45 188C36 137 32 104 32 81C32 -14 85 -50 212 -50Z" transform="translate(87.82, 26.50) scale(0.022000, -0.022000)" fill="#111827"/>
    <path d="M372 524H304C157 524 99 496 75 358L36 134C32 110 29 85 29 64C29 -17 75 -50 205 -50H389L430 51H229C171 51 153 59 153 94C153 105 155 121 158 138L163 169H383C466 169 499 200 515 289L529 368C532 384 533 400 533 412C533 496 477 524 372 524ZM405 368 394 303C390 277 379 266 351 266H181L197 358C208 418 230 424 276 424H347C393 424 408 418 408 394C408 387 407 380 405 368Z" transform="translate(98.64, 26.50) scale(0.022000, -0.022000)" fill="#111827"/>
    <path d="M395 517H120L21 -50H145L226 414H372C419 414 434 407 434 372C434 357 431 332 424 293L363 -50H487L547 293C557 351 563 388 563 415C563 487 523 517 395 517Z" transform="translate(110.83, 26.50) scale(0.022000, -0.022000)" fill="#111827"/>
    <path d="M250 416H409L427 517H268L298 685H174L144 517H69L52 416H126L81 161C75 129 70 94 70 68C70 -20 126 -50 238 -50H311L354 51H286C221 51 196 52 196 92C196 108 200 134 205 161Z" transform="translate(124.45, 26.50) scale(0.022000, -0.022000)" fill="#111827"/>
    <path d="M53 212H347L366 319H72Z" transform="translate(133.78, 26.50) scale(0.022000, -0.022000)" fill="#111827"/>
    <g transform="translate(161.8, 27.7) skewX(-12) translate(-161.8, -27.7)">
    <path d="M91.279296875 0V740.820556640625H239.04345703125V448.461669921875H519.018798828125V740.820556640625H666.222900390625V0H519.018798828125V320.298095703125H239.04345703125V0Z" transform="translate(143.02, 27.70) scale(0.022000, -0.022000)" fill="#111827"/>
    <path d="M216.539794921875 0V270.698974609375L-6.140380859375 740.820556640625H150.864013671875L224.5224609375 559.862548828125Q240.622314453125 518.302490234375 256.1121826171875 478.6324462890625Q271.60205078125 438.96240234375 288.921875 395.84228515625H292.921875Q310.24169921875 438.96240234375 326.4515380859375 478.6324462890625Q342.661376953125 518.302490234375 359.101318359375 559.862548828125L432.979736328125 740.820556640625H586.984130859375L363.52392578125 270.698974609375V0Z" transform="translate(159.67, 27.70) scale(0.022000, -0.022000)" fill="#111827"/>
    <path d="M48.68017578125 233.379150390625V338.581787109375H322.00146484375V233.379150390625Z" transform="translate(172.43, 27.70) scale(0.022000, -0.022000)" fill="#111827"/>
    </g>
    <path d="M904 707 675 114 645 707H499L239 114L241 707H107L116 -50H277L527 513L560 -50H721L1023 707Z" transform="translate(180.57, 26.50) scale(0.022000, -0.022000)" fill="#111827"/>
    <path d="M248 -57H377C524 -57 571 -15 598 138L698 707H566L473 185C455 86 441 54 361 54H302C218 54 184 62 184 117C184 143 193 195 204 258L282 707H149L63 215C52 155 48 121 48 92C48 -19 108 -57 248 -57Z" transform="translate(201.78, 26.50) scale(0.022000, -0.022000)" fill="#111827"/>
  </g>
</svg>
